<?xml version="1.0" encoding="utf-8"?>
<!-- Generator: Adobe Illustrator 28.0.0, SVG Export Plug-In . SVG Version: 6.00 Build 0)  -->
<svg version="1.1" id="レイヤー_1" xmlns="http://www.w3.org/2000/svg" xmlns:xlink="http://www.w3.org/1999/xlink" x="0px"
	 y="0px" viewBox="0 0 65 41" style="enable-background:new 0 0 65 41;" xml:space="preserve">
<style type="text/css">
	.st0{fill:#7F92CC;}
</style>
<g>
	<path class="st0" d="M22.5,9.2h-3.3c-0.5,0-0.9,0.4-0.9,0.9v20.8c0,0.5,0.4,0.9,0.9,0.9h3.3c0.5,0,0.9-0.4,0.9-0.9V10.1
		C23.4,9.6,23,9.2,22.5,9.2"/>
	<path class="st0" d="M45.5,9.2h-3.3c-0.5,0-0.9,0.4-0.9,0.9v12.4L31.7,9.6c0,0,0-0.1-0.1-0.1c0,0,0,0,0,0c0,0,0,0-0.1-0.1
		c0,0,0,0,0,0c0,0,0,0,0,0c0,0,0,0,0,0c0,0,0,0,0,0c0,0,0,0,0,0c0,0,0,0,0,0c0,0,0,0,0,0c0,0,0,0-0.1,0c0,0,0,0,0,0c0,0,0,0-0.1,0
		c0,0,0,0,0,0c0,0,0,0-0.1,0c0,0,0,0,0,0c0,0,0,0,0,0c0,0,0,0,0,0c0,0,0,0,0,0h-3.3c-0.5,0-0.9,0.4-0.9,0.9v20.8
		c0,0.5,0.4,0.9,0.9,0.9h3.3c0.5,0,0.9-0.4,0.9-0.9V18.5l9.5,12.9c0.1,0.1,0.1,0.2,0.2,0.2c0,0,0,0,0,0c0,0,0,0,0.1,0c0,0,0,0,0,0
		c0,0,0,0,0,0c0,0,0,0,0,0c0,0,0,0,0,0c0,0,0,0,0.1,0c0,0,0,0,0,0c0.1,0,0.2,0,0.2,0h3.3c0.5,0,0.9-0.4,0.9-0.9V10.1
		C46.4,9.6,46,9.2,45.5,9.2"/>
	<path class="st0" d="M14.4,26.6H5.3V10.1c0-0.5-0.4-0.9-0.9-0.9H1c-0.5,0-0.9,0.4-0.9,0.9v20.8v0c0,0.2,0.1,0.5,0.3,0.6
		c0,0,0,0,0,0c0,0,0,0,0,0c0.2,0.2,0.4,0.3,0.6,0.3h0h13.4c0.5,0,0.9-0.4,0.9-0.9v-3.3C15.3,27,14.9,26.6,14.4,26.6"/>
	<path class="st0" d="M64,14.4c0.5,0,0.9-0.4,0.9-0.9v-3.3c0-0.5-0.4-0.9-0.9-0.9H50.6h0c-0.3,0-0.5,0.1-0.6,0.3c0,0,0,0,0,0
		c0,0,0,0,0,0c-0.2,0.2-0.3,0.4-0.3,0.6v0v20.8v0c0,0.2,0.1,0.5,0.3,0.6c0,0,0,0,0,0c0,0,0,0,0,0c0.2,0.2,0.4,0.3,0.6,0.3h0H64
		c0.5,0,0.9-0.4,0.9-0.9v-3.3c0-0.5-0.4-0.9-0.9-0.9h-9.1v-3.5H64c0.5,0,0.9-0.4,0.9-0.9v-3.3c0-0.5-0.4-0.9-0.9-0.9h-9.1v-3.5H64z"
		/>
</g>
<g>
	<path class="st0" d="M167.4,79.5c-0.6-2.2-2.3-4-4.5-4.6c-4-1.1-20-1.1-20-1.1s-16,0-20,1.1c-2.2,0.6-3.9,2.3-4.5,4.6
		c-1.1,4-1.1,12.4-1.1,12.4s0,8.4,1.1,12.4c0.6,2.2,2.3,4,4.5,4.6c4,1.1,20,1.1,20,1.1s16,0,20-1.1c2.2-0.6,3.9-2.3,4.5-4.6
		c1.1-4,1.1-12.4,1.1-12.4S168.4,83.6,167.4,79.5z M137.6,99.6V84.3l13.4,7.6L137.6,99.6z"/>
</g>
<g>
	<path class="st0" d="M-51.8,38.7l-13.3-19.4l-1.5-2.2l-9.5-13.9L-77,2.1h-11.7l2.9,4.2l12.7,18.4l1.5,2.2l10.2,14.8l0.8,1.1h11.7
		L-51.8,38.7z M-59.3,40.2l-10.6-15.4l-1.5-2.2L-83.6,4.8h5.3l9.9,14.4l1.5,2.2L-54,40.2H-59.3z"/>
	<polygon class="st0" points="-71.4,22.6 -69.8,24.8 -71.6,26.9 -85.3,42.8 -88.7,42.8 -73.1,24.7 	"/>
	<polygon class="st0" points="-50.3,2.1 -65.1,19.3 -66.9,21.4 -68.4,19.2 -66.6,17.1 -56.6,5.5 -53.7,2.1 	"/>
</g>
<g>
	<path class="st0" d="M54.8,86.4v-7.2c-9.3-0.4-9.6-8.9-9.6-9.7v-0.1h-7.3v27.9l0,0c0,3.2-2.6,5.7-5.7,5.7c-3.2,0-5.7-2.6-5.7-5.7
		c0-3.2,2.6-5.7,5.7-5.7c0.6,0,1.1,0.1,1.7,0.2v-7.4c-7.1-0.9-13.6,4.1-14.6,11.2c-0.9,7.1,4.1,13.6,11.2,14.5
		c7.1,0.9,13.6-4.1,14.5-11.2c0.1-0.8,0.1-1.5,0.1-2.2V83.1C48.5,86.2,54.8,86.4,54.8,86.4z"/>
</g>
<g>
	<path class="st0" d="M-163.6,2.2h-16.7c-6.6,0-12,5.4-12,12v16.7c0,6.6,5.4,12,12,12h16.7c6.6,0,12-5.4,12-12V14.2
		C-151.7,7.5-157,2.2-163.6,2.2z M-163.6,38.6h-16.7c-2.1,0-4.1-0.9-5.5-2.3c-1.4-1.4-2.3-3.3-2.3-5.5V14.2c0-2.1,0.9-4.1,2.3-5.5
		c1.4-1.4,3.3-2.3,5.5-2.3h16.7c2.1,0,4.1,0.9,5.5,2.3c1.4,1.4,2.3,3.3,2.3,5.5v16.7c0,2.1-0.9,4.1-2.3,5.5
		C-159.6,37.7-161.5,38.6-163.6,38.6z"/>
	<path class="st0" d="M-161.2,9.3c-1.4,0-2.5,1.1-2.5,2.5c0,1.4,1.1,2.5,2.5,2.5c1.4,0,2.5-1.1,2.5-2.5
		C-158.7,10.4-159.9,9.3-161.2,9.3z"/>
	<path class="st0" d="M-172,11.9c-5.9,0-10.6,4.8-10.6,10.6c0,5.9,4.8,10.6,10.6,10.6c5.9,0,10.6-4.8,10.6-10.6
		C-161.4,16.6-166.1,11.9-172,11.9z M-167.5,27c-1.2,1.2-2.8,1.9-4.5,1.9c-1.8,0-3.4-0.7-4.5-1.9c-1.2-1.2-1.9-2.8-1.9-4.5
		c0-1.8,0.7-3.4,1.9-4.5c1.2-1.2,2.8-1.9,4.5-1.9c1.8,0,3.4,0.7,4.5,1.9c1.2,1.2,1.9,2.8,1.9,4.5C-165.6,24.3-166.3,25.8-167.5,27z"
		/>
</g>
</svg>
