<?xml version="1.0" encoding="utf-8"?>
<!-- Generator: Adobe Illustrator 28.0.0, SVG Export Plug-In . SVG Version: 6.00 Build 0)  -->
<svg version="1.1" id="レイヤー_1" xmlns="http://www.w3.org/2000/svg" xmlns:xlink="http://www.w3.org/1999/xlink" x="0px"
	 y="0px" viewBox="0 0 541 99" style="enable-background:new 0 0 541 99;" xml:space="preserve">
<style type="text/css">
	.st0{fill:#5C4738;}
</style>
<g>
	<g>
		<path class="st0" d="M1.6,22.7c-0.1-0.2-0.2-0.4-0.4-0.7s-0.4-0.5-0.6-0.8c-0.2-0.3-0.4-0.5-0.5-0.6c2.1-0.8,4.1-1.9,6-3.2
			c1.9-1.3,3.5-2.8,5-4.5c1.5-1.7,2.6-3.5,3.5-5.3c-0.5,0-1.1,0-1.8,0.1c-0.7,0-1.3,0.1-1.9,0.1c-0.6,0-1.2,0-1.7,0.1s-0.9,0-1.1,0
			c-1.8,2.3-3.9,4.3-6.3,5.9c-0.1-0.1-0.3-0.3-0.5-0.5c-0.2-0.2-0.5-0.4-0.7-0.7C0.4,12.2,0.2,12.1,0,12c1.3-0.8,2.5-1.7,3.7-2.8
			s2.2-2.3,3.1-3.6s1.6-2.6,2.1-3.9l2.3,0.8c-0.2,0.5-0.4,1-0.7,1.5c-0.3,0.5-0.5,1-0.8,1.5c0.6,0,1.2,0,1.9-0.1
			c0.7,0,1.4,0,2.1-0.1c0.7,0,1.3-0.1,1.8-0.1s0.8,0,1-0.1l1.5,0.9c-0.8,2.4-2,4.6-3.6,6.8c-1.6,2.1-3.4,4-5.6,5.7
			C6.5,20.2,4.2,21.6,1.6,22.7z"/>
		<path class="st0" d="M29.2,20.2l-1.3-1c0-0.2,0-0.7,0-1.3s0-1.4,0-2.2c0-0.8,0-1.7,0-2.5c0-0.9,0-1.6,0-2.3c0-0.6,0-1.2,0-1.9
			s0-1.3,0-2c0-0.6,0-1.2,0-1.7c0-0.5,0-0.8,0-0.9h2.5c0,0.3,0,0.9,0,1.6c0,0.7,0,1.5,0,2.4c0,0.8,0,1.6,0,2.4v6.4
			c1.2-0.5,2.5-1,3.9-1.7s2.7-1.3,4.1-2.1s2.6-1.5,3.7-2.2c1.1-0.8,2-1.5,2.7-2.1c0,0.2,0,0.5,0.1,0.9c0.1,0.4,0.1,0.8,0.2,1.1
			s0.1,0.6,0.2,0.8c-0.7,0.6-1.5,1.2-2.5,1.8c-1,0.6-2,1.3-3.1,1.9c-1.1,0.6-2.3,1.2-3.5,1.8c-1.2,0.6-2.4,1.1-3.5,1.6
			C31.3,19.4,30.2,19.8,29.2,20.2z"/>
		<path class="st0" d="M61.2,22.3V10.3c-1.4,1-2.9,1.9-4.4,2.7c-1.5,0.8-2.9,1.6-4.4,2.2c-0.2-0.3-0.4-0.7-0.7-1.1s-0.6-0.8-0.9-1
			c1.5-0.5,3-1.2,4.6-2.1c1.6-0.9,3.2-1.8,4.7-2.9C61.6,7.1,63,6,64.2,4.8c1.2-1.2,2.3-2.3,3-3.4l2.1,1.5c-0.7,1-1.6,1.9-2.6,2.9
			c-1,1-2,1.9-3.1,2.8v13.8H61.2z"/>
		<path class="st0" d="M79.5,11.2c-0.1-0.5-0.2-1-0.4-1.7c-0.2-0.7-0.5-1.3-0.7-2S77.8,6.4,77.6,6l2.4-0.9c0.2,0.4,0.4,0.9,0.7,1.5
			s0.5,1.3,0.8,2c0.2,0.7,0.4,1.3,0.5,1.7L79.5,11.2z M81.1,21.6c-0.1-0.2-0.2-0.5-0.4-0.8c-0.2-0.3-0.3-0.6-0.5-0.9
			c-0.2-0.3-0.3-0.5-0.5-0.7c2.5-0.6,4.7-1.5,6.7-2.8c2-1.3,3.6-2.9,4.9-4.9c1.3-2,2.1-4.4,2.5-7.2l2.5,0.4c-0.3,2.4-1,4.5-1.9,6.3
			c-0.9,1.8-2,3.4-3.4,4.8c-1.3,1.3-2.9,2.5-4.6,3.4C84.9,20.2,83.1,21,81.1,21.6z M85.5,9.9c-0.1-0.5-0.2-1-0.4-1.7
			c-0.2-0.7-0.4-1.4-0.7-2C84.2,5.5,84,5,83.7,4.7l2.4-0.8c0.2,0.4,0.4,0.9,0.7,1.5c0.2,0.7,0.5,1.3,0.7,2c0.2,0.7,0.4,1.3,0.5,1.7
			L85.5,9.9z"/>
		<path class="st0" d="M120.5,21.8c-1.6,0.3-3.1,0.5-4.6,0.6c-1.5,0.1-2.9,0.1-4.1,0c-1.3-0.1-2.4-0.4-3.4-0.8s-1.7-0.9-2.3-1.7
			c-0.5-0.7-0.8-1.6-0.8-2.7c0-1.4,0.5-2.6,1.6-3.6c1.1-1,2.5-1.9,4.3-2.7c-0.5-1-0.8-2.4-1-4.1c-0.2-1.7-0.3-3.6-0.2-5.8h2.6
			c-0.1,1-0.1,2.1-0.1,3.2c0,1.1,0.1,2.2,0.3,3.2c0.2,1,0.4,1.9,0.6,2.6c0.9-0.3,1.8-0.6,2.7-0.8c0.9-0.3,1.9-0.5,2.9-0.8l0.5,2.5
			c-1.6,0.2-3.1,0.5-4.5,0.9c-1.4,0.4-2.7,0.9-3.8,1.4s-2,1.1-2.6,1.8c-0.6,0.6-0.9,1.3-0.9,2c0,0.8,0.4,1.5,1.1,1.9
			c0.7,0.5,1.7,0.8,2.9,0.9c1.2,0.2,2.6,0.2,4.2,0c1.6-0.1,3.2-0.4,5-0.8c-0.1,0.3-0.2,0.8-0.3,1.3C120.6,21,120.5,21.5,120.5,21.8z
			"/>
		<path class="st0" d="M149.6,23.8c-2.6-0.8-4.7-1.8-6.4-3.2c-1.7-1.4-3-3-3.8-4.8c-0.8,1.8-2,3.4-3.7,4.8c-1.7,1.4-4,2.4-6.7,3.2
			c-0.1-0.2-0.2-0.4-0.3-0.7c-0.1-0.3-0.3-0.6-0.5-0.8c-0.2-0.3-0.3-0.5-0.4-0.6c2.7-0.6,5-1.6,6.8-3.1c1.8-1.5,2.9-3.3,3.3-5.4h-10
			v-2.2H138V6h-4.4c-0.4,0.7-0.9,1.4-1.4,2.1c-0.5,0.7-1,1.3-1.6,1.8c-0.2-0.1-0.4-0.3-0.7-0.4c-0.3-0.2-0.5-0.3-0.8-0.5
			c-0.3-0.1-0.5-0.2-0.6-0.3c0.8-0.7,1.5-1.6,2.1-2.5c0.7-1,1.2-2,1.7-3c0.5-1,0.9-2.1,1.2-3.1l2.3,0.5c-0.1,0.5-0.3,1.1-0.5,1.6
			c-0.2,0.5-0.4,1.1-0.7,1.6h14V6h-8.3v4.9h10.2v2.2h-9.8c0.6,2.1,1.8,3.9,3.6,5.4c1.8,1.5,4,2.5,6.6,3.1c-0.1,0.2-0.3,0.4-0.4,0.6
			c-0.2,0.3-0.3,0.6-0.5,0.8C149.8,23.4,149.7,23.7,149.6,23.8z"/>
		<path class="st0" d="M153.9,17.4V3.1h7.3v6.8c0.5-0.7,0.9-1.4,1.4-2.2s0.8-1.7,1.2-2.6s0.7-1.7,0.9-2.5c0.2-0.8,0.4-1.5,0.5-2.2
			l2.3,0.5c-0.1,0.6-0.3,1.3-0.5,1.9s-0.4,1.4-0.7,2.1h9.2l1.1,0.9c-0.3,0.7-0.6,1.5-1.1,2.4c-0.5,0.9-0.9,1.8-1.4,2.7
			c-0.5,0.9-1,1.6-1.4,2.3c-0.1-0.1-0.3-0.2-0.6-0.3c-0.3-0.1-0.5-0.3-0.8-0.4s-0.5-0.2-0.7-0.3c0.3-0.4,0.6-0.9,1-1.5
			s0.7-1.2,1-1.8c0.3-0.6,0.6-1.2,0.7-1.6h-8.1c-0.4,0.9-0.8,1.8-1.2,2.5c-0.5,0.8-0.9,1.5-1.4,2.1c-0.2-0.1-0.4-0.3-0.7-0.4
			s-0.6-0.4-0.8-0.5v6.7H153.9z M156,15.3h3V5.3h-3V15.3z M176,23.8c-1.8-0.9-3.5-2-4.9-3.3c-1.4-1.3-2.5-2.9-3.2-4.8
			c-0.7,1.9-1.8,3.5-3.2,4.8c-1.4,1.3-3.1,2.4-5,3.2c-0.1-0.2-0.2-0.4-0.4-0.6c-0.2-0.3-0.4-0.5-0.6-0.7c-0.2-0.2-0.4-0.4-0.5-0.5
			c1.7-0.6,3.2-1.5,4.5-2.6s2.2-2.4,3-3.8c0.7-1.5,1.1-3,1.1-4.8V8.2h2.4v2.5c0,1.8,0.4,3.4,1.1,4.8c0.7,1.4,1.7,2.7,3,3.7
			c1.3,1,2.8,1.9,4.4,2.6c-0.1,0.1-0.3,0.3-0.5,0.6c-0.2,0.3-0.4,0.5-0.6,0.8S176,23.7,176,23.8z"/>
		<path class="st0" d="M179.8,12.5c-0.1-0.2-0.2-0.4-0.3-0.7s-0.3-0.5-0.5-0.8c-0.2-0.3-0.3-0.5-0.4-0.6c1.9-0.5,3.6-1.2,5-2.1
			c1.4-0.9,2.6-2,3.6-3.2h-7.2V3h8.6c0.5-0.9,0.8-1.8,1.1-2.8l2.5,0.3c-0.1,0.4-0.3,0.9-0.4,1.3c-0.2,0.4-0.3,0.8-0.5,1.2h11.3v2.1
			h-7.9c0.7,0.8,1.6,1.6,2.6,2.2c1,0.7,2.1,1.2,3.2,1.7c1.1,0.5,2.3,0.8,3.5,1c-0.1,0.1-0.2,0.3-0.4,0.6c-0.2,0.3-0.3,0.6-0.5,0.9
			s-0.3,0.5-0.3,0.7c-1-0.2-2-0.6-3.1-1.1c-1-0.5-2-1-3-1.6v1.8h-10.9V9.6c-0.8,0.6-1.7,1.1-2.7,1.6C182,11.7,181,12.1,179.8,12.5z
			 M181.5,22.9c-0.1-0.1-0.2-0.3-0.4-0.6s-0.4-0.5-0.6-0.8s-0.4-0.4-0.5-0.5c0.5-0.2,1-0.5,1.6-0.8c0.6-0.3,1.2-0.7,1.8-1.1
			c0.6-0.4,1.1-0.8,1.6-1.3s0.9-0.8,1.2-1.1l1.7,1.4c-0.5,0.6-1.1,1.1-1.8,1.7s-1.5,1.2-2.2,1.7C182.9,22.1,182.2,22.5,181.5,22.9z
			 M187.4,23.9c0-0.3-0.1-0.7-0.2-1.2c-0.1-0.5-0.2-0.9-0.3-1.1h2.1c0.4,0,0.6-0.1,0.8-0.2c0.2-0.1,0.2-0.4,0.2-0.7v-4.7h-9.9v-2.2
			h22.1v2.2h-9.8v5.5c0,0.8-0.2,1.5-0.7,1.9c-0.5,0.4-1.2,0.6-2.1,0.6H187.4z M186,9.3h10.1c-0.8-0.6-1.6-1.3-2.3-2
			s-1.3-1.5-1.8-2.3h-2c-0.5,0.8-1.1,1.6-1.8,2.3C187.6,8.1,186.8,8.7,186,9.3z M200.9,22.9c-0.7-0.3-1.4-0.8-2.2-1.3
			s-1.5-1.1-2.2-1.7s-1.3-1.2-1.8-1.7l1.7-1.4c0.3,0.4,0.7,0.8,1.2,1.2c0.5,0.4,1,0.8,1.6,1.2c0.6,0.4,1.1,0.8,1.7,1.1
			c0.6,0.3,1.1,0.6,1.6,0.8c-0.1,0.1-0.3,0.3-0.5,0.5s-0.4,0.5-0.6,0.8S200.9,22.8,200.9,22.9z"/>
		<path class="st0" d="M212.6,23.7c0-0.3-0.1-0.8-0.2-1.3c-0.1-0.5-0.2-0.9-0.4-1.2h3c0.4,0,0.6-0.1,0.8-0.2
			c0.2-0.1,0.2-0.4,0.2-0.7V13h-10.7v-2.2h10.7V7h1.5c0.4-0.3,0.8-0.6,1.3-1c0.5-0.4,1-0.9,1.5-1.3s0.9-0.8,1.1-1.1h-13.4V1.4h16.9
			l1.1,1.1c-0.3,0.3-0.8,0.7-1.3,1.2c-0.5,0.5-1.1,1-1.7,1.5c-0.6,0.5-1.2,1-1.8,1.5c-0.6,0.5-1.2,0.9-1.7,1.3
			c-0.5,0.4-0.9,0.7-1.2,0.9v1.8H229V13h-10.5v8.2c0,0.9-0.2,1.5-0.7,1.9c-0.5,0.4-1.2,0.6-2.2,0.6H212.6z"/>
		<path class="st0" d="M250.5,21.8c-1.6,0.3-3.1,0.5-4.6,0.6c-1.5,0.1-2.9,0.1-4.1,0c-1.3-0.1-2.4-0.4-3.4-0.8s-1.7-0.9-2.3-1.7
			c-0.5-0.7-0.8-1.6-0.8-2.7c0-1.4,0.5-2.6,1.6-3.6c1.1-1,2.5-1.9,4.3-2.7c-0.5-1-0.8-2.4-1-4.1c-0.2-1.7-0.3-3.6-0.2-5.8h2.6
			c-0.1,1-0.1,2.1-0.1,3.2c0,1.1,0.1,2.2,0.3,3.2c0.2,1,0.4,1.9,0.6,2.6c0.9-0.3,1.8-0.6,2.7-0.8c0.9-0.3,1.9-0.5,2.9-0.8l0.5,2.5
			c-1.6,0.2-3.1,0.5-4.5,0.9c-1.4,0.4-2.7,0.9-3.8,1.4s-2,1.1-2.6,1.8c-0.6,0.6-0.9,1.3-0.9,2c0,0.8,0.4,1.5,1.1,1.9
			c0.7,0.5,1.7,0.8,2.9,0.9c1.2,0.2,2.6,0.2,4.2,0c1.6-0.1,3.2-0.4,5-0.8c-0.1,0.3-0.2,0.8-0.3,1.3C250.6,21,250.5,21.5,250.5,21.8z
			"/>
		<path class="st0" d="M271.1,21.9c-0.1-0.3-0.3-0.7-0.6-1.2c-0.3-0.5-0.6-0.8-0.8-1.1c1.6-0.2,2.9-0.7,4-1.4
			c1.1-0.7,1.9-1.5,2.5-2.4c0.6-1,0.9-2,1-3.1c0.1-1-0.1-2-0.4-2.9s-0.8-1.6-1.4-2.3s-1.3-1.2-2.2-1.6s-1.7-0.6-2.6-0.7
			c-0.1,1.7-0.4,3.4-0.8,5.1c-0.4,1.7-0.9,3.3-1.5,4.8c-0.6,1.5-1.4,2.7-2.3,3.7c-0.6,0.7-1.2,1-1.8,1.2c-0.6,0.1-1.3,0-1.9-0.2
			c-0.7-0.3-1.2-0.7-1.8-1.4c-0.5-0.6-0.9-1.4-1.2-2.3s-0.4-1.8-0.3-2.9c0.1-1.5,0.4-2.9,1.1-4.2c0.6-1.3,1.5-2.4,2.6-3.3
			c1.1-0.9,2.3-1.6,3.7-2.1s2.9-0.7,4.4-0.6c1.2,0.1,2.4,0.4,3.5,0.9c1.1,0.5,2.1,1.2,2.9,2.1c0.8,0.9,1.5,1.9,2,3
			c0.5,1.2,0.7,2.4,0.6,3.8c-0.1,2.3-0.9,4.2-2.4,5.7C275.7,20.2,273.6,21.3,271.1,21.9z M262.7,17.4c0.2,0.1,0.4,0.2,0.7,0.2
			c0.3,0,0.5-0.1,0.8-0.4c0.7-0.7,1.3-1.7,1.8-2.9c0.5-1.2,1-2.6,1.4-4.1c0.4-1.5,0.6-3.1,0.7-4.7c-1.3,0.2-2.5,0.7-3.5,1.5
			c-1,0.8-1.8,1.7-2.4,2.8s-0.9,2.3-1,3.6c-0.1,1,0.1,1.8,0.4,2.5C261.8,16.6,262.3,17.1,262.7,17.4z"/>
		<path class="st0" d="M287.2,18.3l-0.1-2.5c0.2,0,0.6,0,1.2,0s1.4,0,2.2,0c0.9,0,1.8,0,2.8,0s1.9,0,2.9,0c0.9,0,1.8,0,2.5,0
			c0.7,0,1.3,0,1.7,0V8.6c-0.3,0-0.8,0-1.5,0s-1.5,0-2.4,0c-0.9,0-1.9,0-2.9,0c-1,0-1.9,0-2.8,0c-0.9,0-1.7,0-2.3,0
			c-0.6,0-1.1,0-1.3,0.1l-0.1-2.5c0.3,0,0.8,0,1.6,0.1c0.8,0,1.7,0,2.8,0c1.1,0,2.2,0,3.4,0s2.3,0,3.4,0c1.1,0,2,0,2.8,0
			c0.8,0,1.3,0,1.6,0v11.9c-0.5,0-1.3,0-2.2,0s-1.9,0-3,0c-1.1,0-2.2,0-3.3,0c-1.1,0-2.2,0-3.2,0c-1,0-1.9,0-2.6,0
			C287.9,18.3,287.4,18.3,287.2,18.3z"/>
		<path class="st0" d="M315.9,22.6c-0.1-0.2-0.2-0.4-0.3-0.7c-0.2-0.3-0.3-0.6-0.5-0.9c-0.2-0.3-0.3-0.5-0.5-0.6
			c3.2-0.9,5.8-2.3,7.8-4c2-1.8,3.5-3.9,4.4-6.3c-0.8,0-1.7,0.1-2.8,0.1c-1.1,0.1-2.2,0.1-3.3,0.2c-1.2,0.1-2.3,0.1-3.3,0.2
			c-1.1,0.1-2,0.1-2.8,0.1c-0.8,0-1.3,0.1-1.7,0.1l-0.2-2.5c0.4,0,1,0,1.8,0c0.8,0,1.8,0,2.8-0.1c1.1,0,2.1-0.1,3.3-0.1
			c1.1,0,2.2-0.1,3.2-0.1c1,0,1.9-0.1,2.7-0.1c0.8-0.1,1.3-0.1,1.7-0.2l1.4,0.8c-0.8,3.3-2.3,6.2-4.6,8.6
			C322.8,19.5,319.7,21.3,315.9,22.6z M315.3,4.8V2.4c0.8,0,1.7,0,2.7,0.1c1,0,2.1,0,3.3,0c1.1,0,2.2,0,3.2,0s2,0,2.8-0.1v2.4
			c-0.9,0-1.8-0.1-2.8-0.1s-2.1,0-3.2,0c-0.7,0-1.4,0-2.1,0c-0.7,0-1.4,0-2.1,0S315.8,4.8,315.3,4.8z"/>
		<path class="st0" d="M338,19c-0.1-0.2-0.3-0.4-0.5-0.6c-0.2-0.2-0.5-0.5-0.7-0.7s-0.4-0.4-0.6-0.5c0.7-0.4,1.3-0.9,1.9-1.5
			c0.6-0.6,1.2-1.2,1.7-1.8c0.5-0.7,0.9-1.3,1.2-1.9l2,1.2c-0.4,0.7-0.8,1.4-1.4,2.1s-1.2,1.4-1.8,2C339.2,18,338.6,18.5,338,19z
			 M343.7,21.7c0-0.2-0.1-0.4-0.2-0.7s-0.2-0.6-0.3-0.9c-0.1-0.3-0.2-0.6-0.3-0.7c1.1,0,1.9-0.1,2.3-0.3c0.4-0.2,0.6-0.6,0.6-1.3
			V9.8c-0.7,0-1.5,0-2.4,0c-0.9,0-1.7,0-2.6,0c-0.8,0-1.6,0-2.1,0c-0.6,0-1,0-1.1,0V7.6c0.2,0,0.6,0,1.1,0c0.6,0,1.3,0,2.1,0
			s1.7,0,2.6,0c0.9,0,1.7,0,2.4,0V2.8h2.5v4.8c0.7,0,1.5,0,2.4,0c0.9,0,1.8,0,2.6,0s1.6,0,2.2,0c0.6,0,1,0,1.1,0v2.3
			c-0.2,0-0.6,0-1.2,0s-1.3,0-2.2,0c-0.8,0-1.7,0-2.6,0c-0.9,0-1.7,0-2.5,0v8.4c0,0.8-0.1,1.4-0.4,1.9c-0.3,0.5-0.8,0.9-1.4,1.1
			C345.8,21.5,344.9,21.6,343.7,21.7z M355.7,18.7c-0.3-0.6-0.7-1.2-1.3-1.8s-1.1-1.3-1.7-2c-0.6-0.6-1.2-1.2-1.7-1.6l1.7-1.4
			c0.6,0.4,1.2,1,1.8,1.6s1.2,1.3,1.8,1.9c0.6,0.6,1,1.2,1.4,1.7c-0.2,0.1-0.4,0.2-0.7,0.4c-0.3,0.2-0.5,0.4-0.8,0.6
			C356,18.4,355.8,18.6,355.7,18.7z M354.8,6.1c-0.2-0.4-0.5-0.8-0.8-1.2c-0.3-0.4-0.7-0.8-1-1.2s-0.7-0.7-1-1l1.2-0.9
			c0.3,0.2,0.6,0.6,1,1c0.4,0.4,0.8,0.9,1.1,1.3c0.4,0.4,0.6,0.8,0.8,1.1L354.8,6.1z M357.1,4.3c-0.2-0.4-0.5-0.8-0.8-1.2
			c-0.3-0.4-0.7-0.8-1.1-1.2c-0.4-0.4-0.7-0.7-1-0.9l1.2-0.9c0.3,0.2,0.6,0.5,1,1c0.4,0.4,0.8,0.8,1.1,1.3c0.4,0.4,0.7,0.8,0.8,1.1
			L357.1,4.3z"/>
		<path class="st0" d="M377,12.5c-0.2-0.2-0.5-0.5-0.8-0.9s-0.7-0.6-1-0.7c0.5-0.4,1.1-0.9,1.7-1.5c0.6-0.6,1.2-1.2,1.8-1.9
			c0.6-0.7,1.1-1.3,1.6-2c-0.7,0-1.6,0-2.6,0.1c-1,0-2.1,0.1-3.2,0.1c-1.1,0-2.3,0.1-3.4,0.1c-1.1,0-2.2,0.1-3.2,0.1
			c-1,0-1.9,0.1-2.6,0.1c-0.7,0-1.3,0-1.7,0.1l-0.1-2.5c0.5,0,1.3,0,2.3,0c1,0,2.1,0,3.4,0s2.6,0,3.9-0.1s2.6-0.1,3.8-0.1
			c1.2,0,2.3-0.1,3.3-0.1c0.9-0.1,1.6-0.1,2.1-0.2l1.5,1.2c-0.4,0.6-0.8,1.3-1.4,2.1s-1.1,1.5-1.7,2.2c-0.6,0.7-1.3,1.4-1.9,2.1
			C378.1,11.5,377.5,12,377,12.5z M367.1,22.8c-0.2-0.3-0.4-0.6-0.8-0.9c-0.3-0.4-0.7-0.7-1-0.8c2.4-1.4,4-3.2,5-5.5
			c1-2.3,1.5-4.9,1.4-7.9h2.5c0,3.4-0.6,6.4-1.7,8.9C371.3,19.1,369.6,21.2,367.1,22.8z"/>
		<path class="st0" d="M399.2,22.3V10.3c-1.4,1-2.9,1.9-4.4,2.7c-1.5,0.8-2.9,1.6-4.4,2.2c-0.2-0.3-0.4-0.7-0.7-1.1s-0.6-0.8-0.9-1
			c1.5-0.5,3-1.2,4.6-2.1c1.6-0.9,3.2-1.8,4.7-2.9c1.5-1.1,2.9-2.2,4.1-3.4c1.2-1.2,2.3-2.3,3-3.4l2.1,1.5c-0.7,1-1.6,1.9-2.6,2.9
			c-1,1-2,1.9-3.1,2.8v13.8H399.2z"/>
		<path class="st0" d="M417.7,18.8V5.7h15v13.1H417.7z M420.1,16.5h10.1V8h-10.1V16.5z"/>
		<path class="st0" d="M447.2,9.5c-0.2-0.2-0.5-0.5-0.9-0.8c-0.4-0.3-0.9-0.7-1.3-1s-1-0.7-1.4-1c-0.5-0.3-0.8-0.5-1.2-0.7l1.6-2
			c0.3,0.2,0.7,0.4,1.2,0.7c0.5,0.3,0.9,0.6,1.4,1s0.9,0.7,1.4,1c0.4,0.3,0.7,0.6,1,0.8L447.2,9.5z M444.1,21l-1.4-2.4
			c1.2-0.3,2.5-0.7,3.9-1.3c1.4-0.6,2.7-1.3,4-2.1c1.3-0.8,2.6-1.7,3.8-2.6c1.2-0.9,2.3-1.8,3.3-2.7c1-0.9,1.8-1.8,2.4-2.7
			c0.1,0.2,0.1,0.5,0.3,0.8c0.1,0.3,0.3,0.7,0.4,1s0.3,0.6,0.4,0.7c-0.8,1-1.9,2.1-3.2,3.2c-1.3,1.1-2.7,2.2-4.2,3.2s-3.1,2-4.8,2.8
			C447.3,19.8,445.7,20.5,444.1,21z"/>
		<path class="st0" d="M470.6,23.8V17c-0.6,0.8-1.3,1.7-2,2.5c-0.7,0.8-1.4,1.5-2.1,2.1c-0.1-0.1-0.2-0.3-0.5-0.5
			c-0.2-0.2-0.4-0.4-0.7-0.5c-0.2-0.2-0.4-0.3-0.6-0.3c0.5-0.4,1.1-0.9,1.7-1.5c0.6-0.6,1.2-1.3,1.8-2.1c0.6-0.7,1-1.4,1.4-2h-3.5
			v-2.1h4.4v-2.2h-4.9V8.6h3.1c-0.2-0.5-0.3-1-0.6-1.6s-0.4-1-0.6-1.3l1.8-0.6c0.2,0.4,0.5,1,0.8,1.7c0.3,0.7,0.5,1.3,0.6,1.8h1.6
			c0.2-0.4,0.3-0.8,0.5-1.3c0.2-0.5,0.3-0.9,0.5-1.3s0.3-0.7,0.3-1l2,0.5c-0.1,0.4-0.3,0.9-0.5,1.5c-0.2,0.5-0.5,1.1-0.7,1.5h3.1
			v1.9h-4.8v2.2h4.3v2.1h-4.3v0.3l0.1-0.1c0.3,0.4,0.7,0.8,1.2,1.2s1,0.9,1.5,1.3s1,0.8,1.5,1c-0.1,0.1-0.3,0.2-0.5,0.5
			c-0.2,0.2-0.4,0.4-0.6,0.7s-0.3,0.4-0.4,0.5c-0.4-0.3-0.9-0.7-1.4-1.2c-0.5-0.5-1-1-1.5-1.5v6.3H470.6z M466.2,4.8V2.9h4.2V0.3
			h2.3v2.6h4.3v1.9H466.2z M476.7,24c-0.1-0.1-0.3-0.3-0.6-0.4s-0.5-0.3-0.8-0.5c-0.3-0.2-0.5-0.3-0.6-0.3c1.4-1.3,2.4-3,3-5
			c0.5-2.1,0.8-4.6,0.8-7.5V2.6c0.8,0,1.8-0.1,2.8-0.2s2.1-0.4,3.1-0.7s1.9-0.6,2.6-1l1.5,2c-0.6,0.3-1.4,0.5-2.3,0.8
			c-0.9,0.3-1.8,0.5-2.8,0.7c-0.9,0.2-1.8,0.3-2.6,0.4v4.2h8.1v2.2h-3v13.1h-2.3V10.8h-2.8c0,3-0.4,5.6-1,7.7
			C479.2,20.7,478.1,22.5,476.7,24z"/>
		<path class="st0" d="M492.7,23.8c-0.1-0.2-0.2-0.6-0.4-1c-0.2-0.4-0.4-0.7-0.6-1c1.6-0.2,2.9-0.5,3.9-1s1.8-1,2.4-1.7
			c0.6-0.7,1-1.7,1.2-2.8h-6.3v-2.2h6.4v-3h-2.5V9.9c-0.7,0.6-1.5,1.2-2.3,1.8c-0.8,0.5-1.6,1-2.5,1.4c-0.1-0.1-0.2-0.3-0.4-0.5
			c-0.2-0.2-0.4-0.4-0.5-0.6c-0.2-0.2-0.4-0.4-0.5-0.4c0.9-0.4,1.8-0.9,2.7-1.5s1.7-1.3,2.5-2c-0.4-0.5-0.9-0.9-1.5-1.4
			c-0.6-0.5-1.1-0.9-1.5-1.1l1.4-1.4c0.5,0.3,1,0.7,1.6,1.1c0.6,0.5,1.1,0.9,1.6,1.3c0.5-0.6,1-1.1,1.4-1.7c0.4-0.5,0.7-1.1,1-1.6
			h-5.8V1.3h7.8l1.1,0.8c-0.5,1.2-1.2,2.5-2,3.6c-0.9,1.2-1.8,2.3-2.9,3.3h10.8c-1.2-1.1-2.3-2.3-3.2-3.6c-0.9-1.3-1.7-2.7-2.2-4.2
			l1.9-0.7c0.4,1.1,1,2.2,1.7,3.3c0.4-0.3,0.8-0.6,1.2-0.9c0.4-0.3,0.8-0.7,1.2-1s0.7-0.6,0.9-0.9l1.5,1.4c-0.3,0.3-0.7,0.6-1.1,1
			s-0.8,0.7-1.3,1.1c-0.4,0.4-0.8,0.7-1.2,0.9c0.2,0.3,0.5,0.5,0.7,0.8c0.2,0.3,0.5,0.5,0.7,0.7c0.4-0.3,0.8-0.6,1.2-0.9
			c0.5-0.4,0.9-0.7,1.3-1.1c0.4-0.4,0.7-0.7,0.9-0.9l1.5,1.4c-0.3,0.3-0.6,0.6-1,1c-0.4,0.4-0.8,0.7-1.2,1.1
			c-0.4,0.3-0.8,0.7-1.2,0.9c0.7,0.5,1.5,1,2.2,1.5c0.8,0.5,1.6,0.8,2.4,1.1c-0.1,0.1-0.3,0.3-0.5,0.5s-0.4,0.5-0.6,0.7
			c-0.2,0.3-0.3,0.5-0.4,0.6c-1.7-0.8-3.2-1.7-4.7-2.9v1.4h-2.8v3h6.4v2.2h-6.4v4.2c0,0.2,0.1,0.4,0.2,0.5s0.4,0.2,0.8,0.2h2.7
			c0.5,0,0.8-0.1,1.1-0.2c0.3-0.1,0.5-0.4,0.6-0.8s0.2-1.1,0.3-1.9c0.3,0.2,0.7,0.4,1.1,0.5c0.4,0.2,0.8,0.3,1.1,0.4
			c-0.2,1.2-0.5,2.1-0.7,2.7c-0.3,0.6-0.7,1-1.1,1.2s-1.1,0.3-1.8,0.3h-4.1c-0.9,0-1.5-0.1-1.9-0.4c-0.4-0.3-0.6-0.8-0.6-1.4v-5.2
			h-3c-0.3,2.1-1.2,3.8-2.5,5C497.5,22.6,495.5,23.4,492.7,23.8z M501.6,14.2h2.8v-3h-2.8V14.2z"/>
		<path class="st0" d="M518.5,23.9c-0.1-0.3-0.3-0.6-0.5-1.1s-0.4-0.8-0.6-1c1.7-0.2,3.2-0.7,4.3-1.2c1.1-0.6,2-1.4,2.5-2.6
			c0.6-1.1,0.8-2.6,0.9-4.4l2.4,0.3c-0.1,2.9-0.9,5.2-2.3,6.8C523.7,22.3,521.5,23.4,518.5,23.9z M520.2,8.9V7h7.7V4.8h-10.2v-2
			h10.2V0.3h2.5v2.4h10.2v2h-10.2V7h7.7v2H520.2z M518.3,15.6v-5H540v4.9h-2.4v-3h-16.7v3H518.3z M532.7,23.3c-1,0-1.6-0.2-2-0.5
			c-0.4-0.3-0.6-0.8-0.6-1.5v-7.7h2.4v6.6c0,0.3,0.1,0.5,0.2,0.6c0.1,0.1,0.4,0.2,0.8,0.2h3c0.5,0,0.9-0.1,1.2-0.2
			c0.3-0.2,0.5-0.5,0.6-0.9c0.1-0.5,0.3-1.1,0.3-2c0.3,0.2,0.6,0.3,1.1,0.5c0.5,0.2,0.9,0.3,1.2,0.4c-0.2,1.3-0.4,2.3-0.7,2.9
			c-0.3,0.6-0.7,1.1-1.2,1.3s-1.1,0.3-1.9,0.3H532.7z"/>
	</g>
	<g>
		<g>
			<rect x="436.7" y="48.3" class="st0" width="7" height="21.6"/>
			<rect x="436.7" y="77" class="st0" width="7" height="21.6"/>
			<path class="st0" d="M481.1,56.9c1.3-1.3,2.9-1.9,4.8-1.9c5.8,0,7,4.4,7,7.4c0,1.4-0.5,3.1-1,3.8c-0.8,1.2-1.5,2.4-2.2,3.6h7.7
				c1.5-2.8,2.2-4.7,2.2-7.6c0-4.1-1.4-7.6-4-10.3c-2.6-2.7-6-4.1-10.2-4.1c-3.7,0-6.9,1.4-9.5,4.1c-2.5,2.7-3.9,6.2-4.1,10.4l7,0
				C479,60,479.8,58.2,481.1,56.9z"/>
			<path class="st0" d="M493.1,77h-3h-5c-0.5,0.8-0.9,1.5-1.4,2.2c-10.2,16.3-12,19.3-12,19.3l27.8,0v-7.2h-14.9L493.1,77z"/>
			<path class="st0" d="M394.8,47.8c-3.7,0-6.8,1.2-9.5,3.7c-2.8,2.5-4.3,6.1-4.3,10.7v7.5l7,0v-7.1c0.1-5,2.4-7.6,6.8-7.7
				c4.5,0.1,6.7,2.7,6.9,7.7v7.1h7v-7.5c-0.1-4.6-1.5-8.2-4.2-10.7C401.8,49.1,398.6,47.8,394.8,47.8z"/>
			<path class="st0" d="M401.7,79.2v4.9c-0.1,5.1-2.4,7.7-6.9,7.7c-4.5,0-6.8-2.6-6.8-7.7v-4.9V77l-7,0v7.5c0,4.6,1.5,8.2,4.3,10.7
				c2.7,2.5,5.8,3.7,9.5,3.8c3.8,0,7-1.3,9.7-3.8c2.7-2.5,4.1-6.1,4.2-10.7V77l-7,0V79.2z"/>
			<path class="st0" d="M351.4,49.5c-2-1.1-4.3-1.7-6.9-1.7c-2.5,0-4.8,0.6-6.8,1.8c-0.9,0.5-1.8,1.2-2.6,1.9
				c-2.8,2.5-4.3,6.1-4.3,10.7v0.3v0.2V63c0,4.6,1.5,8.2,4.3,10.7c0.8,0.8,1.7,1.4,2.6,2c2,1.2,4.3,1.8,6.8,1.8h6.9V79v0.2v2.7
				l0,14.5c0.5,0,7,0,7,0l0-17.1V79v-2h-7v-1.3v-5.4h-6.9c-4.4,0-6.7-2.6-6.8-7.6c0.1-5,2.4-7.6,6.8-7.6c4.5,0.1,6.7,2.7,6.9,7.7
				v1.6v5.5v0.4l7,0v-0.4v-5.1v-2.4c-0.1-4.6-1.5-8.2-4.2-10.7C353.3,50.8,352.4,50.1,351.4,49.5z"/>
		</g>
		<g>
			
				<rect x="264.8" y="72" transform="matrix(0.7071 -0.7071 0.7071 0.7071 32.5352 226.3096)" class="st0" width="49.4" height="3.7"/>
			
				<rect x="298.8" y="76.2" transform="matrix(0.7072 -0.707 0.707 0.7072 27.8781 237.4792)" class="st0" width="3.7" height="17.7"/>
			
				<rect x="278.8" y="52.9" transform="matrix(0.7072 -0.707 0.707 0.7072 36.1697 217.4842)" class="st0" width="3.7" height="24.4"/>
		</g>
		<g>
			<path class="st0" d="M41.4,46.3h6.7l21.3,34.5h0.1V46.3h7.1v48.6H70L48.7,60.4h-0.1v34.5h-7.1V46.3z"/>
			<path class="st0" d="M126.8,84.1h-17.8l-3.6,10.9h-7.6l17.1-48.6h6l17.1,48.6h-7.5L126.8,84.1z M124.7,77.5l-6.8-21.3h-0.1
				L111,77.5H124.7z"/>
			<path class="st0" d="M158.9,46.3h7.1v25h0.1l19.4-25h8.5l-15.1,19.2l16.7,29.4h-8.5l-12.8-23.8l-8.3,9v14.8h-7.1V46.3z"/>
			<path class="st0" d="M212.7,70.6c0-5.7,0.2-9.4,0.5-11.4c0.3-1.9,0.9-3.5,1.6-4.6c1.1-2.2,3-4.2,5.5-6c2.5-1.8,5.6-2.7,9.3-2.7
				c3.7,0,6.9,1,9.4,2.7c2.5,1.8,4.3,3.8,5.4,6c0.8,1.2,1.3,2.7,1.6,4.6c0.3,1.9,0.4,5.7,0.4,11.3c0,5.6-0.1,9.3-0.4,11.3
				c-0.3,2-0.8,3.5-1.6,4.7c-1.1,2.2-2.9,4.2-5.4,5.9c-2.5,1.8-5.6,2.7-9.4,2.8c-3.7-0.1-6.8-1-9.3-2.8c-2.5-1.7-4.3-3.7-5.5-5.9
				c-0.3-0.7-0.7-1.4-0.9-2.1c-0.3-0.7-0.5-1.6-0.6-2.6C212.9,79.9,212.7,76.2,212.7,70.6z M219.8,70.6c0,4.8,0.2,8,0.5,9.7
				c0.3,1.7,0.9,3.1,1.8,4.1c0.8,1,1.7,1.8,3,2.4c1.2,0.7,2.7,1.1,4.3,1.1c1.7,0,3.2-0.4,4.4-1.1c1.2-0.6,2.1-1.4,2.8-2.4
				c0.9-1,1.6-2.4,1.9-4.1c0.3-1.7,0.5-4.9,0.5-9.7c0-4.8-0.2-8-0.5-9.8c-0.3-1.6-1-3-1.9-4c-0.7-1-1.7-1.8-2.8-2.5
				c-1.3-0.6-2.7-1-4.4-1c-1.7,0-3.1,0.4-4.3,1c-1.2,0.7-2.2,1.5-3,2.5c-0.9,1-1.5,2.4-1.8,4C220,62.6,219.8,65.9,219.8,70.6z"/>
		</g>
	</g>
</g>
</svg>
