<?xml version="1.0" encoding="utf-8"?>
<!-- Generator: Adobe Illustrator 28.0.0, SVG Export Plug-In . SVG Version: 6.00 Build 0)  -->
<svg version="1.1" id="レイヤー_1" xmlns="http://www.w3.org/2000/svg" xmlns:xlink="http://www.w3.org/1999/xlink" x="0px"
	 y="0px" viewBox="0 0 457 96" style="enable-background:new 0 0 457 96;" xml:space="preserve">
<style type="text/css">
	.st0{fill:#EA968B;}
	.st1{fill:none;stroke:#EA968B;stroke-width:3.2281;stroke-miterlimit:10;}
</style>
<g>
	<g>
		<rect x="392.4" y="41.5" class="st0" width="7.1" height="22.1"/>
		<rect x="392.4" y="70.9" class="st0" width="7.1" height="22.1"/>
		<path class="st0" d="M437.9,50.3c1.3-1.3,2.9-1.9,4.9-1.9c6,0,7.1,4.5,7.1,7.6c0,1.5-0.6,3.2-1,3.9c-0.8,1.3-1.5,2.5-2.3,3.7
			l7.9,0c1.5-2.8,2.3-4.8,2.3-7.8c0-4.2-1.4-7.7-4.1-10.5c-2.7-2.8-6.2-4.2-10.5-4.2c-3.8,0-7.1,1.4-9.7,4.2
			c-2.6,2.8-4,6.3-4.2,10.6h7.1C435.7,53.5,436.5,51.6,437.9,50.3z"/>
		<path class="st0" d="M450.3,70.9h-3.1h-5.1c-0.5,0.8-1,1.5-1.4,2.3C430.3,89.9,428.3,93,428.3,93l28.5,0v-7.4h-15.3L450.3,70.9z"
			/>
		<path class="st0" d="M349.4,41c-3.8,0-7,1.3-9.7,3.8c-2.9,2.6-4.4,6.2-4.4,11v7.7l7.1,0v-7.3c0.1-5.2,2.4-7.8,7-7.9
			c4.6,0.1,6.9,2.7,7.1,7.9v7.3l7.1,0v-7.7c-0.1-4.8-1.5-8.4-4.3-11C356.6,42.3,353.3,41,349.4,41z"/>
		<path class="st0" d="M356.5,73.2v5c-0.1,5.2-2.5,7.9-7.1,7.9c-4.6,0-6.9-2.7-7-7.9v-5v-2.3h-7.1v7.7c0,4.7,1.5,8.4,4.4,10.9
			c2.7,2.5,6,3.8,9.7,3.9c3.9,0,7.2-1.3,9.9-3.9c2.8-2.6,4.2-6.2,4.3-11v-7.7h-7.1V73.2z"/>
		<path class="st0" d="M304.9,42.8c-2.1-1.2-4.4-1.8-7.1-1.8c-2.6,0-4.9,0.6-7,1.8c-1,0.5-1.9,1.2-2.7,2c-2.9,2.6-4.4,6.2-4.4,11
			v0.3v0.2v0.3c0,4.7,1.5,8.4,4.4,10.9c0.9,0.8,1.8,1.5,2.7,2c2.1,1.2,4.4,1.8,7,1.9l7.1,0V73v0.2v2.7v14.8c0.5,0,7.1,0,7.1,0V73.2
			V73v-2.1h-7.1v-1.4V64h-7.1c-4.6,0-6.9-2.6-7-7.8c0.1-5.1,2.4-7.7,7-7.8c4.6,0.1,6.9,2.7,7.1,7.9v1.6v5.6V64l7.1,0v-0.5v-5.2v-2.5
			c-0.1-4.8-1.5-8.4-4.3-11C306.9,44,305.9,43.4,304.9,42.8z"/>
	</g>
	<g>
		<line class="st1" x1="239.3" y1="84.3" x2="265" y2="58.5"/>
		<line class="st1" x1="256.3" y1="75.5" x2="265" y2="84.3"/>
		<line class="st1" x1="239.3" y1="58.5" x2="252" y2="71.2"/>
	</g>
	<g>
		<path class="st0" d="M0.2,45.6H7L20.9,78l13.6-32.5h6.9v49.8H34V64.3h-0.2L23.8,88.2h-6.1L7.6,64.3H7.5v31.1H0.2V45.6z"/>
		<path class="st0" d="M65.5,45.6h7.3v49.8h-7.3V45.6z"/>
		<path class="st0" d="M129.4,81.5c-1.1,4.6-3.1,8.2-6.1,10.6c-3.1,2.5-6.7,3.7-10.9,3.7c-3.8-0.1-7-1-9.5-2.9
			c-2.6-1.8-4.5-3.8-5.6-6.1c-0.4-0.8-0.7-1.5-1-2.2c-0.3-0.7-0.5-1.6-0.7-2.7c-0.3-2-0.5-5.9-0.5-11.5c0-5.8,0.2-9.7,0.5-11.6
			c0.4-2,0.9-3.5,1.6-4.7c1.2-2.3,3-4.3,5.6-6.1c2.5-1.8,5.7-2.8,9.5-2.8c4.7,0,8.4,1.5,11.4,4.3c2.9,2.8,4.8,6.3,5.6,10.5h-7.8
			c-0.6-2-1.7-3.7-3.2-5.1c-1.6-1.3-3.6-2-6-2.1c-1.7,0-3.2,0.4-4.4,1.1c-1.3,0.7-2.3,1.5-3,2.6c-1,1.1-1.6,2.5-1.9,4.1
			c-0.4,1.8-0.5,5.1-0.5,10c0,4.9,0.2,8.2,0.5,10c0.3,1.7,0.9,3.1,1.9,4.2c0.8,1,1.8,1.9,3,2.5c1.2,0.8,2.7,1.1,4.4,1.1
			c4.1,0,7.2-2.3,9.2-6.8H129.4z"/>
		<path class="st0" d="M176.3,73.6h-19.1v21.8h-7.3V45.6h7.3v21.4h19.1V45.6h7.3v49.8h-7.3V73.6z"/>
		<path class="st0" d="M207.7,45.6h7.3v49.8h-7.3V45.6z"/>
	</g>
</g>
<g>
	<path class="st0" d="M137.1,22.6c-0.3-0.3-0.8-0.7-1.5-1.1c-0.7-0.4-1.4-0.9-2.2-1.4c-0.8-0.5-1.6-0.9-2.5-1.4
		c-0.8-0.5-1.6-0.9-2.4-1.2c-0.7-0.4-1.4-0.6-1.9-0.8l1.5-2c0.7,0.3,1.6,0.6,2.6,1.1c1,0.5,2,1,3,1.5c1,0.5,1.9,1.1,2.8,1.6
		c0.9,0.5,1.6,1,2.1,1.4L137.1,22.6z M135.6,13.9c-0.3-0.3-0.9-0.6-1.5-1c-0.7-0.4-1.4-0.8-2.2-1.2c-0.8-0.4-1.6-0.8-2.3-1.1
		c-0.7-0.3-1.3-0.5-1.8-0.7l1.4-2c0.5,0.2,1.2,0.4,1.9,0.7c0.7,0.3,1.4,0.6,2.2,1s1.5,0.7,2.1,1.1c0.7,0.4,1.2,0.7,1.7,1L135.6,13.9
		z M137.5,8c-0.3-0.3-0.9-0.6-1.5-1c-0.7-0.4-1.4-0.8-2.2-1.2c-0.8-0.4-1.6-0.8-2.3-1.1c-0.7-0.3-1.3-0.5-1.8-0.7l1.5-2
		c0.5,0.2,1.1,0.4,1.9,0.7c0.7,0.3,1.5,0.6,2.2,1s1.5,0.7,2.1,1.1c0.6,0.3,1.2,0.6,1.5,0.9L137.5,8z"/>
	<path class="st0" d="M153.3,22.4c-0.1-0.2-0.2-0.4-0.3-0.7s-0.3-0.6-0.5-0.9s-0.3-0.5-0.5-0.6c2.5-0.6,4.4-1.5,5.6-2.8
		c1.3-1.3,2-2.9,2.2-4.9c-1.2,0-2.4,0-3.5,0.1c-1.1,0-2.1,0-3.1,0.1c-0.9,0-1.7,0-2.3,0.1c-0.6,0-1,0-1.1,0.1l-0.2-2.3
		c0.1,0,0.5,0,1.1,0c0.6,0,1.3,0,2.2,0c0.9,0,1.9,0,3-0.1c1.1,0,2.3,0,3.4-0.1h0.4V6.1c-2.1,0.3-4.2,0.5-6.1,0.6
		c0-0.2-0.1-0.4-0.2-0.7c-0.1-0.3-0.2-0.6-0.3-0.9c-0.1-0.3-0.2-0.5-0.3-0.6c1.1,0,2.2-0.1,3.5-0.2c1.2-0.1,2.5-0.3,3.7-0.5
		s2.4-0.4,3.5-0.7s2-0.6,2.8-0.9l0.9,2.1c-0.7,0.3-1.5,0.5-2.4,0.8c-0.9,0.2-1.8,0.4-2.8,0.6v4.5c1.4,0,2.7-0.1,3.9-0.1
		c1.2,0,2.2-0.1,3-0.1c0.8,0,1.3-0.1,1.4-0.1l0,2.4c-0.2,0-0.7,0-1.5,0s-1.8,0-3,0c-1.2,0-2.5,0-3.9,0.1c-0.2,2.6-1,4.7-2.5,6.3
		C158.2,20.3,156,21.6,153.3,22.4z"/>
	<path class="st0" d="M179.6,18.5l-0.1-2.5c0.2,0,0.6,0,1.2,0s1.4,0,2.2,0c0.9,0,1.8,0,2.8,0s1.9,0,2.9,0c0.9,0,1.8,0,2.5,0
		c0.7,0,1.3,0,1.7,0V8.8c-0.3,0-0.8,0-1.5,0s-1.5,0-2.4,0s-1.9,0-2.9,0c-1,0-1.9,0-2.8,0c-0.9,0-1.7,0-2.3,0c-0.6,0-1.1,0-1.3,0.1
		l-0.1-2.5c0.3,0,0.8,0,1.6,0.1c0.8,0,1.7,0,2.8,0c1.1,0,2.2,0,3.4,0s2.3,0,3.4,0c1.1,0,2,0,2.8,0c0.8,0,1.3,0,1.6,0v11.9
		c-0.5,0-1.3,0-2.2,0s-1.9,0-3,0s-2.2,0-3.3,0c-1.1,0-2.2,0-3.2,0s-1.9,0-2.6,0C180.3,18.4,179.8,18.5,179.6,18.5z"/>
	<path class="st0" d="M209.6,22.8c-0.1-0.2-0.2-0.4-0.3-0.7c-0.2-0.3-0.3-0.6-0.5-0.9c-0.2-0.3-0.3-0.5-0.5-0.6
		c3.2-0.9,5.8-2.3,7.8-4c2-1.8,3.5-3.9,4.4-6.3c-0.8,0-1.7,0.1-2.8,0.1c-1.1,0.1-2.2,0.1-3.3,0.2c-1.2,0.1-2.3,0.1-3.3,0.2
		s-2,0.1-2.8,0.1c-0.8,0-1.3,0.1-1.7,0.1l-0.2-2.5c0.4,0,1,0,1.8,0c0.8,0,1.8,0,2.8-0.1c1.1,0,2.1-0.1,3.3-0.1
		c1.1,0,2.2-0.1,3.2-0.1s1.9-0.1,2.7-0.1s1.3-0.1,1.7-0.2l1.4,0.8c-0.8,3.3-2.3,6.2-4.6,8.6S213.4,21.5,209.6,22.8z M209,5V2.6
		c0.8,0,1.7,0,2.7,0.1c1,0,2.1,0,3.3,0c1.1,0,2.2,0,3.2,0c1,0,2,0,2.8-0.1V5c-0.9,0-1.8-0.1-2.8-0.1s-2.1,0-3.2,0
		c-0.7,0-1.4,0-2.1,0c-0.7,0-1.4,0-2.1,0S209.5,5,209,5z"/>
	<path class="st0" d="M232.9,19.1c-0.1-0.2-0.3-0.4-0.5-0.6c-0.2-0.2-0.5-0.5-0.7-0.7s-0.4-0.4-0.6-0.5c0.7-0.4,1.3-0.9,1.9-1.5
		c0.6-0.6,1.2-1.2,1.7-1.8c0.5-0.7,0.9-1.3,1.2-1.9l2,1.2c-0.4,0.7-0.8,1.4-1.4,2.1c-0.6,0.7-1.2,1.4-1.8,2S233.6,18.7,232.9,19.1z
		 M238.6,21.9c0-0.2-0.1-0.4-0.2-0.7c-0.1-0.3-0.2-0.6-0.3-0.9c-0.1-0.3-0.2-0.6-0.3-0.7c1.1,0,1.9-0.1,2.3-0.3
		c0.4-0.2,0.6-0.6,0.6-1.3V9.9c-0.7,0-1.5,0-2.4,0c-0.9,0-1.7,0-2.6,0c-0.8,0-1.6,0-2.1,0c-0.6,0-1,0-1.1,0V7.7c0.2,0,0.6,0,1.1,0
		c0.6,0,1.3,0,2.1,0s1.7,0,2.6,0s1.7,0,2.4,0V3h2.5v4.8c0.7,0,1.5,0,2.4,0c0.9,0,1.8,0,2.6,0s1.6,0,2.2,0c0.6,0,1,0,1.1,0V10
		c-0.2,0-0.6,0-1.2,0s-1.3,0-2.2,0c-0.8,0-1.7,0-2.6,0c-0.9,0-1.7,0-2.5,0v8.4c0,0.8-0.1,1.4-0.4,2c-0.3,0.5-0.8,0.9-1.4,1.1
		S239.8,21.8,238.6,21.9z M250.7,18.9c-0.3-0.6-0.7-1.2-1.3-1.8s-1.1-1.3-1.7-2c-0.6-0.6-1.2-1.2-1.7-1.6l1.7-1.4
		c0.6,0.4,1.2,1,1.8,1.6s1.2,1.3,1.8,1.9s1,1.2,1.4,1.7c-0.2,0.1-0.4,0.2-0.7,0.4c-0.3,0.2-0.5,0.4-0.8,0.6S250.8,18.8,250.7,18.9z
		 M249.7,6.3c-0.2-0.4-0.5-0.8-0.8-1.2c-0.3-0.4-0.7-0.8-1-1.2s-0.7-0.7-1-1l1.2-0.9c0.3,0.2,0.6,0.6,1,1c0.4,0.4,0.8,0.9,1.1,1.3
		c0.4,0.4,0.6,0.8,0.8,1.1L249.7,6.3z M252,4.5c-0.2-0.4-0.5-0.8-0.8-1.2s-0.7-0.8-1.1-1.2c-0.4-0.4-0.7-0.7-1-0.9l1.2-0.9
		c0.3,0.2,0.6,0.5,1,1c0.4,0.4,0.8,0.8,1.1,1.3c0.4,0.4,0.7,0.8,0.8,1.1L252,4.5z"/>
	<path class="st0" d="M270.6,20.7c-1.3,0-2.3-0.2-2.9-0.6s-0.9-1.1-0.9-2.2v-4.7c-0.8,0-1.6,0-2.5,0c-0.9,0-1.7,0-2.4,0s-1.4,0-2,0
		c-0.5,0-0.9,0-1.1,0V11c0.2,0,0.6,0,1.1,0s1.2,0,2,0s1.6,0,2.4,0c0.8,0,1.7,0,2.5,0v-4c-0.7,0-1.4,0-2.2,0c-0.7,0-1.4,0-1.9,0
		c-0.5,0-0.9,0-1,0V4.9c0.2,0,0.6,0,1.2,0s1.3,0,2.1,0s1.6,0,2.4,0c0.8,0,1.5,0,2.1,0c0.5,0,1.2,0,1.9,0c0.7,0,1.4,0,2.2,0
		c0.7,0,1.3,0,1.9,0s0.9,0,1,0v2.3c-0.2,0-0.5,0-1-0.1c-0.5,0-1.1,0-1.8,0c-0.7,0-1.4,0-2.1,0c-0.7,0-1.4,0-2,0h-0.3v4h0.2
		c0.6,0,1.3,0,2.1,0s1.6,0,2.5,0c0.9,0,1.7,0,2.4,0s1.4,0,2,0s0.9,0,1,0v2.3c-0.2,0-0.5,0-1,0c-0.5,0-1.2,0-1.9,0s-1.5,0-2.4,0
		s-1.7,0-2.5,0s-1.5,0-2.2,0h-0.2V17c0,0.5,0.1,0.8,0.4,1s0.8,0.3,1.5,0.3c0.7,0,1.4,0,2.2-0.1c0.8,0,1.5-0.1,2.2-0.1
		c0.7-0.1,1.3-0.1,1.7-0.2c0,0.1-0.1,0.4-0.1,0.7c0,0.3-0.1,0.6-0.1,0.9c0,0.3,0,0.6,0,0.7c-0.5,0.1-1.1,0.1-1.9,0.2
		s-1.6,0.1-2.4,0.1C272,20.7,271.3,20.7,270.6,20.7z"/>
	<path class="st0" d="M290.4,22.9c-0.1-0.2-0.2-0.4-0.4-0.7s-0.4-0.5-0.6-0.8c-0.2-0.3-0.4-0.5-0.5-0.6c2.4-0.9,4.2-2.1,5.3-3.6
		c1.1-1.5,1.7-3.4,1.8-5.8c-1.1,0-2.2,0-3.2,0.1c-1,0-2,0-2.8,0.1s-1.5,0-2.1,0c-0.6,0-0.9,0-1.1,0l-0.1-2.3c0.1,0,0.6,0,1.3,0
		s1.7,0,2.8,0c1.1,0,2.4,0,3.7,0c1.3,0,2.7,0,4-0.1c1.3,0,2.6,0,3.7-0.1c1.1,0,2.1,0,2.8-0.1s1.2,0,1.3-0.1l0,2.3
		c-0.2,0-0.7,0-1.4,0s-1.8,0-2.9,0s-2.4,0-3.7,0c-0.1,2.8-0.8,5.2-2.1,7C294.9,20.3,293,21.7,290.4,22.9z M290.2,5.4l-0.1-2.4
		c0.1,0,0.5,0,1.1,0s1.4,0,2.3,0c0.9,0,1.8,0,2.8-0.1c1,0,1.9,0,2.8-0.1c0.9,0,1.6,0,2.3-0.1c0.6,0,1,0,1.1,0l0.1,2.3
		c-0.2,0-0.5,0-1.2,0c-0.6,0-1.4,0-2.2,0c-0.9,0-1.8,0-2.8,0.1c-1,0-1.9,0.1-2.8,0.1c-0.9,0-1.6,0-2.2,0.1
		C290.8,5.4,290.4,5.4,290.2,5.4z M306.1,6.9c-0.2-0.4-0.5-0.8-0.8-1.2c-0.3-0.4-0.7-0.8-1-1.2c-0.4-0.4-0.7-0.7-1-1l1.2-0.9
		c0.3,0.2,0.6,0.6,1,1c0.4,0.4,0.7,0.9,1.1,1.3c0.4,0.4,0.6,0.8,0.8,1.1L306.1,6.9z M308.3,5.1c-0.2-0.4-0.5-0.8-0.8-1.2
		s-0.7-0.8-1.1-1.2c-0.4-0.4-0.7-0.7-1-0.9l1.2-0.9c0.3,0.2,0.6,0.6,1,1c0.4,0.4,0.8,0.9,1.1,1.3c0.4,0.4,0.7,0.8,0.8,1.1L308.3,5.1
		z"/>
	<path class="st0" d="M314,21.1c-0.1-0.2-0.3-0.4-0.5-0.6c-0.2-0.2-0.4-0.5-0.7-0.7c-0.2-0.2-0.4-0.4-0.6-0.6c1.9-1,3.3-2.2,4.3-3.5
		c1-1.3,1.5-2.8,1.8-4.5s0.2-3.6-0.1-5.7l2.3-0.2c0.4,2.4,0.4,4.6,0.1,6.6c-0.3,1.9-1,3.7-2.1,5.2C317.5,18.6,316,19.9,314,21.1z
		 M325.4,20.2l-1.3-1.1c0-0.2,0-0.7,0-1.3c0-0.6,0-1.3,0-2.1c0-0.8,0-1.6,0-2.5c0-0.8,0-1.6,0-2.4c0-1.2,0-2.4,0-3.6
		c0-1.2,0-2.1-0.1-2.8h2.5c0,0.3,0,0.9,0,1.6c0,0.7,0,1.5,0,2.4s0,1.7,0,2.4V17c0.7-0.3,1.5-0.7,2.4-1.2s1.8-1,2.7-1.5
		c0.9-0.5,1.7-1,2.4-1.5c0.7-0.5,1.3-0.9,1.7-1.3c0,0.2,0,0.5,0.1,0.9s0.1,0.7,0.2,1.1s0.1,0.6,0.2,0.7c-0.6,0.5-1.3,1-2.2,1.6
		c-0.9,0.6-1.9,1.2-3,1.7c-1,0.6-2.1,1.1-3.1,1.6C326.9,19.6,326.1,20,325.4,20.2z"/>
</g>
</svg>
