<?xml version="1.0" encoding="utf-8"?>
<!-- Generator: Adobe Illustrator 28.0.0, SVG Export Plug-In . SVG Version: 6.00 Build 0)  -->
<svg version="1.1" id="レイヤー_1" xmlns="http://www.w3.org/2000/svg" xmlns:xlink="http://www.w3.org/1999/xlink" x="0px"
	 y="0px" viewBox="0 0 80 10" style="enable-background:new 0 0 80 10;" xml:space="preserve">
<style type="text/css">
	.st0{fill:#6E6E6E;}
</style>
<g>
	<rect x="69" y="0.8" class="st0" width="1.2" height="3.8"/>
	<rect x="69" y="5.8" class="st0" width="1.2" height="3.8"/>
	<path class="st0" d="M76.8,2.3C77,2.1,77.3,2,77.6,2c1,0,1.2,0.8,1.2,1.3c0,0.3-0.1,0.5-0.2,0.7c-0.1,0.2-0.3,0.4-0.4,0.6l1.3,0
		C79.9,4.1,80,3.7,80,3.2c0-0.7-0.2-1.3-0.7-1.8c-0.5-0.5-1-0.7-1.8-0.7c-0.7,0-1.2,0.2-1.7,0.7c-0.4,0.5-0.7,1.1-0.7,1.8l1.2,0
		C76.4,2.8,76.5,2.5,76.8,2.3z"/>
	<path class="st0" d="M78.9,5.8h-0.5l-0.9,0c-0.1,0.1-0.2,0.3-0.2,0.4c-1.8,2.9-2.1,3.4-2.1,3.4l4.9,0V8.3l-2.6,0L78.9,5.8z"/>
	<path class="st0" d="M61.7,0.7c-0.6,0-1.2,0.2-1.7,0.6c-0.5,0.4-0.7,1.1-0.8,1.9v1.3l1.2,0V3.3c0-0.9,0.4-1.3,1.2-1.3
		c0.8,0,1.2,0.5,1.2,1.3v1.2l1.2,0V3.2c0-0.8-0.3-1.4-0.7-1.9C62.9,0.9,62.4,0.7,61.7,0.7z"/>
	<path class="st0" d="M62.9,6.2V7c0,0.9-0.4,1.3-1.2,1.3c-0.8,0-1.2-0.5-1.2-1.3V6.2V5.8l-1.2,0v1.3c0,0.8,0.3,1.4,0.8,1.9
		c0.5,0.4,1,0.7,1.7,0.7c0.7,0,1.2-0.2,1.7-0.7c0.5-0.4,0.7-1.1,0.7-1.9V5.8l-1.2,0V6.2z"/>
	<path class="st0" d="M54.1,1c-0.4-0.2-0.8-0.3-1.2-0.3c-0.4,0-0.8,0.1-1.2,0.3c-0.2,0.1-0.3,0.2-0.5,0.3c-0.5,0.4-0.7,1.1-0.8,1.9
		v0v0v0c0,0.8,0.3,1.4,0.8,1.9c0.1,0.1,0.3,0.2,0.5,0.3c0.4,0.2,0.8,0.3,1.2,0.3l1.2,0v0.3v0v0.5l0,2.5c0.1,0,1.2,0,1.2,0v-3v0V5.8
		l-1.2,0V5.6V4.6l-1.2,0c-0.8,0-1.2-0.5-1.2-1.3c0-0.9,0.4-1.3,1.2-1.3c0.8,0,1.2,0.5,1.2,1.3v0.3v1v0.1l1.2,0V4.5V3.6V3.2
		c0-0.8-0.3-1.4-0.7-1.9C54.5,1.2,54.3,1.1,54.1,1z"/>
</g>
<g>
	<polygon class="st0" points="40.5,8.5 40,8.1 46.1,2 46.6,2.4 	"/>
	<rect x="44.9" y="5.7" transform="matrix(0.7071 -0.7071 0.7071 0.7071 8.1618 34.1179)" class="st0" width="0.6" height="3.1"/>
	<rect x="41.5" y="1.6" transform="matrix(0.7071 -0.7071 0.7071 0.7071 9.6092 30.6244)" class="st0" width="0.6" height="4.3"/>
</g>
<g>
	<path class="st0" d="M0,0.4h1.2l3.7,6h0v-6h1.2v8.5H5l-3.7-6h0v6H0V0.4z"/>
	<path class="st0" d="M14.9,7h-3.1l-0.6,1.9H9.8l3-8.5h1l3,8.5h-1.3L14.9,7z M14.5,5.9l-1.2-3.7h0l-1.2,3.7H14.5z"/>
	<path class="st0" d="M20.5,0.4h1.2v4.4h0l3.4-4.4h1.5L24,3.8l2.9,5.1h-1.5l-2.2-4.1l-1.4,1.6v2.6h-1.2V0.4z"/>
	<path class="st0" d="M29.9,4.7c0-1,0-1.6,0.1-2c0.1-0.3,0.2-0.6,0.3-0.8c0.2-0.4,0.5-0.7,1-1c0.4-0.3,1-0.5,1.6-0.5
		c0.7,0,1.2,0.2,1.6,0.5c0.4,0.3,0.7,0.7,0.9,1c0.1,0.2,0.2,0.5,0.3,0.8c0,0.3,0.1,1,0.1,2c0,1,0,1.6-0.1,2
		c-0.1,0.3-0.1,0.6-0.3,0.8c-0.2,0.4-0.5,0.7-0.9,1C34,8.8,33.5,9,32.8,9c-0.6,0-1.2-0.2-1.6-0.5c-0.4-0.3-0.8-0.6-1-1
		c-0.1-0.1-0.1-0.2-0.2-0.4C30.1,7,30,6.8,30,6.7C29.9,6.3,29.9,5.7,29.9,4.7z M31.2,4.7c0,0.8,0,1.4,0.1,1.7
		c0.1,0.3,0.2,0.5,0.3,0.7c0.1,0.2,0.3,0.3,0.5,0.4c0.2,0.1,0.5,0.2,0.8,0.2c0.3,0,0.6-0.1,0.8-0.2c0.2-0.1,0.4-0.3,0.5-0.4
		c0.2-0.2,0.3-0.4,0.3-0.7c0.1-0.3,0.1-0.9,0.1-1.7s0-1.4-0.1-1.7c-0.1-0.3-0.2-0.5-0.3-0.7c-0.1-0.2-0.3-0.3-0.5-0.4
		c-0.2-0.1-0.5-0.2-0.8-0.2c-0.3,0-0.5,0.1-0.8,0.2c-0.2,0.1-0.4,0.3-0.5,0.4c-0.2,0.2-0.3,0.4-0.3,0.7C31.2,3.3,31.2,3.8,31.2,4.7z
		"/>
</g>
</svg>
