<?xml version="1.0" encoding="utf-8"?>
<!-- Generator: Adobe Illustrator 28.0.0, SVG Export Plug-In . SVG Version: 6.00 Build 0)  -->
<svg version="1.1" id="レイヤー_1" xmlns="http://www.w3.org/2000/svg" xmlns:xlink="http://www.w3.org/1999/xlink" x="0px"
	 y="0px" viewBox="0 0 181 55" style="enable-background:new 0 0 181 55;" xml:space="preserve">
<style type="text/css">
	.st0{fill:#6E6E6E;}
</style>
<g>
	<g>
		<rect x="113.6" y="0.6" class="st0" width="7.5" height="23.1"/>
		<rect x="113.6" y="31.3" class="st0" width="7.5" height="23.1"/>
		<path class="st0" d="M161.1,9.8c1.4-1.4,3.1-2,5.1-2c6.2,0,7.5,4.7,7.5,7.9c0,1.5-0.6,3.4-1,4.1c-0.8,1.3-1.6,2.6-2.4,3.8l8.2,0
			c1.6-2.9,2.4-5,2.4-8.1c0-4.4-1.5-8.1-4.3-11c-2.8-2.9-6.4-4.4-10.9-4.4c-4,0-7.4,1.5-10.1,4.4c-2.7,2.9-4.2,6.6-4.4,11.1l7.5,0
			C158.9,13.1,159.7,11.2,161.1,9.8z"/>
		<path class="st0" d="M174,31.3h-3.2l-5.3,0c-0.5,0.8-1,1.6-1.5,2.4c-10.9,17.5-12.9,20.7-12.9,20.7l29.8,0v-7.7l-16,0L174,31.3z"
			/>
		<path class="st0" d="M68.7,0.1c-3.9,0-7.3,1.3-10.2,4c-3,2.7-4.6,6.5-4.6,11.5l0,8.1l7.5,0v-7.6c0.1-5.4,2.5-8.2,7.3-8.3
			c4.8,0.1,7.2,2.9,7.4,8.3v7.6l7.5,0v-8.1c-0.1-5-1.6-8.8-4.5-11.5C76.2,1.5,72.8,0.1,68.7,0.1z"/>
		<path class="st0" d="M76.1,33.7l0,5.2c-0.1,5.5-2.6,8.2-7.4,8.3c-4.8,0-7.2-2.8-7.3-8.3l0-5.2v-2.4l-7.5,0l0,8
			c0,4.9,1.6,8.8,4.6,11.4c2.8,2.7,6.2,4,10.2,4.1c4.1,0,7.5-1.4,10.3-4.1c2.9-2.7,4.4-6.5,4.5-11.4l0-8l-7.5,0V33.7z"/>
		<path class="st0" d="M22.2,2c-2.2-1.2-4.6-1.8-7.4-1.8c-2.7,0-5.1,0.6-7.3,1.9c-1,0.6-1.9,1.3-2.8,2.1c-3,2.7-4.6,6.5-4.6,11.5
			l0,0.3l0,0.2l0,0.3c0,4.9,1.6,8.8,4.6,11.4c0.9,0.8,1.8,1.5,2.8,2.1c2.2,1.3,4.6,1.9,7.3,2l7.4,0l0,1.7v0.2v2.9l0,15.5
			c0.6,0,7.5,0,7.5,0l0-18.3v-0.2v-2.1l-7.5,0v-1.4l0-5.8l-7.4,0c-4.8,0-7.2-2.8-7.3-8.1c0.1-5.4,2.6-8.1,7.3-8.2
			c4.8,0.1,7.2,2.9,7.4,8.3v1.7l0,5.9v0.5l7.5,0v-0.5l0-5.5v-2.6c-0.1-5-1.6-8.8-4.5-11.5C24.3,3.3,23.3,2.5,22.2,2z"/>
	</g>
</g>
</svg>
